<svg width="14" height="8" viewBox="0 0 14 8" fill="none" xmlns="http://www.w3.org/2000/svg">
<path d="M7.77207 7.66521L13.6902 1.77913C13.7883 1.68245 13.8663 1.56743 13.9194 1.44071C13.9726 1.31398 14 1.17805 14 1.04077C14 0.903483 13.9726 0.767556 13.9194 0.64083C13.8663 0.514103 13.7883 0.399084 13.6902 0.302408C13.4939 0.108717 13.2284 -3.37262e-08 12.9517 -4.5822e-08C12.675 -5.79179e-08 12.4095 0.108717 12.2133 0.302408L6.97601 5.45013L1.79114 0.302407C1.59489 0.108717 1.32941 -5.53849e-07 1.05269 -5.65945e-07C0.775965 -5.78041e-07 0.510487 0.108717 0.314234 0.302407C0.215262 0.398721 0.136525 0.513578 0.082585 0.640321C0.0286448 0.767065 0.000575063 0.903175 -2.55009e-07 1.04077C0.000575051 1.17836 0.0286448 1.31447 0.0825849 1.44121C0.136525 1.56796 0.215262 1.68281 0.314234 1.77913L6.23232 7.66521C6.33041 7.77077 6.44945 7.85501 6.58196 7.91263C6.71446 7.97025 6.85754 8 7.0022 8C7.14685 8 7.28994 7.97025 7.42244 7.91263C7.55494 7.85501 7.67399 7.77077 7.77207 7.66521V7.66521Z" fill="#2B2929"/>
</svg>
